#!OML:ASF F:\VICON\USERDATA\INSTALL\rory3\rory3.ASF
:FULLY-SPECIFIED
:DEGREES
111
root -9.49011 17.3359 -6.7182 -3.14087 21.3959 -6.25825
lowerback 9.34561 -0.696206 1.77901
upperback 0.959569 -0.530518 4.18452
thorax -4.22371 -0.250942 3.42849
lowerneck -13.8741 -2.93859 -9.78769
upperneck 22.9589 -2.44247 3.1705
head 9.7471 -1.60422 2.44675
rclavicle -9.49197e-015 2.66371e-014
rhumerus -40.2214 -20.0824 -70.7092
rradius 23.6071
rwrist 11.6005
rhand -13.807 10.4181
rfingers 7.12502
rthumb 12.3152 -19.1992
lclavicle -9.49197e-015 2.66371e-014
lhumerus -35.3442 11.9325 85.0277
lradius 33.9879
lwrist -6.29667
lhand -22.7491 20.5464
lfingers 7.12502
lthumb 3.68538 50.4943
rfemur -12.9679 8.76908 22.1062
rtibia 28.1444
rfoot -10.5956 -3.4045
rtoes -10.7035
lfemur -27.1529 2.81986 -19.3648
ltibia 73.1842
lfoot 1.12202 -5.09392
ltoes 5.91514
112
root -9.4377 17.3364 -6.49765 -3.26149 22.0814 -6.5563
lowerback 9.17044 -0.760536 1.96712
upperback 0.955962 -0.601755 4.22893
thorax -4.12792 -0.288929 3.37404
lowerneck -13.8559 -2.89025 -9.72892
upperneck 23.0943 -2.42461 3.3127
head 9.78969 -1.57699 2.49141
rclavicle 1.61016e-014 2.98177e-014
rhumerus -40.0188 -19.7482 -71.0212
rradius 23.9439
rwrist 11.5722
rhand -13.6231 10.1022
rfingers 7.12502
rthumb 12.4925 -19.5044
lclavicle 1.61016e-014 2.98177e-014
lhumerus -35.9079 12.2751 84.7948
lradius 33.4807
lwrist -6.79237
lhand -23.1746 19.416
lfingers 7.12502
lthumb 3.27448 49.3706
rfemur -12.0848 9.05538 22.7415
rtibia 28.2927
rfoot -11.147 -4.60625
rtoes -8.75823
lfemur -28.6772 3.6176 -19.4128
ltibia 72.8447
lfoot -0.358771 -5.03814
ltoes 5.8569
113
root -9.38415 17.328 -6.27792 -3.40651 22.6569 -6.90698
lowerback 9.01907 -0.785331 2.22731
upperback 1.03187 -0.614919 4.30016
thorax -3.96578 -0.298901 3.29861
lowerneck -14.1382 -2.91686 -9.77735
upperneck 23.2292 -2.44789 3.43088
head 9.89476 -1.57899 2.53838
rclavicle 4.95471e-014 -3.06128e-014
rhumerus -39.4972 -19.5238 -71.3393
rradius 24.028
rwrist 11.7507
rhand -13.8111 10.3535
rfingers 7.12502
rthumb 12.3113 -19.2641
lclavicle 4.95471e-014 -3.06128e-014
lhumerus -36.2596 12.6915 84.6643
lradius 33.0678
lwrist -7.17604
lhand -23.5375 19.776
lfingers 7.12502
lthumb 2.92402 49.7357
rfemur -11.1782 9.40077 23.4558
rtibia 28.4476
rfoot -11.8308 -5.84234
rtoes -7.10025
lfemur -30.1181 4.45206 -19.4512
ltibia 72.2404
lfoot -2.05448 -5.48212
ltoes 3.66806
114
root -9.32462 17.3209 -6.05872 -3.47362 23.3121 -7.1292
lowerback 8.8568 -0.813432 2.43771
upperback 1.09908 -0.639675 4.35285
thorax -3.80597 -0.313561 3.23319
lowerneck -14.6011 -3.0125 -10.1021
upperneck 23.5772 -2.52608 3.73726
head 10.1229 -1.61197 2.69343
rclavicle 3.42904e-014 -1.19271e-014
rhumerus -38.8499 -19.1247 -71.6723
rradius 24.0478
rwrist 11.879
rhand -13.9867 10.5212
rfingers 7.12502
rthumb 12.1419 -19.1065
lclavicle 3.42904e-014 -1.19271e-014
lhumerus -36.5757 13.1309 84.5876
lradius 32.6852
lwrist -7.41012
lhand -23.3334 19.1033
lfingers 7.12502
lthumb 3.12112 49.0602
rfemur -10.2741 9.45412 24.0117
rtibia 28.5415
rfoot -12.5327 -7.11479
rtoes -6.75783
lfemur -31.494 5.07479 -19.7382
ltibia 71.3962
lfoot -3.57018 -6.12163
ltoes 1.49056
115
root -9.26218 17.3093 -5.84024 -3.44768 24.151 -7.37332
lowerback 8.40567 -0.791221 2.64526
upperback 1.03619 -0.612018 4.34106
thorax -3.62289 -0.302538 3.09177
lowerneck -14.0541 -3.15486 -10.0918
upperneck 23.409 -2.81551 3.85404
head 9.9815 -1.73104 2.69652
rclavicle -4.04527e-014 3.73715e-014
rhumerus -38.6143 -18.895 -71.924
rradius 24.3062
rwrist 11.7647
rhand -14.102 10.8776
rfingers 7.12502
rthumb 12.0307 -18.7566
lclavicle -4.04527e-014 3.73715e-014
lhumerus -37.2115 13.0394 84.4495
lradius 32.3832
lwrist -7.19673
lhand -22.7684 17.0174
lfingers 7.12502
lthumb 3.66672 46.9656
rfemur -9.45397 9.24955 24.5445
rtibia 28.5615
rfoot -13.212 -8.32191
rtoes -7.36481
lfemur -32.9648 5.50595 -20.1032
ltibia 70.3549
lfoot -4.0452 -6.09954
ltoes 2.4495
116
root -9.21008 17.2838 -5.62285 -3.56917 24.9852 -7.89498
lowerback 8.11943 -0.740031 2.97447
upperback 0.890357 -0.519447 4.39671
thorax -3.62048 -0.26031 2.95086
lowerneck -13.1523 -3.21451 -9.78743
upperneck 22.8658 -3.05245 3.80587
head 9.62746 -1.81599 2.5985
rclavicle -3.15074e-014 3.97569e-015
rhumerus -38.4211 -18.8619 -72.0514
rradius 24.6227
rwrist 11.2148
rhand -13.6196 11.0477
rfingers 7.12502
rthumb 12.4959 -18.5587
lclavicle -3.15074e-014 3.97569e-015
lhumerus -37.8528 13.1322 84.1211
lradius 31.85
lwrist -7.11023
lhand -21.9641 15.6485
lfingers 7.12502
lthumb 4.4434 45.5819
rfemur -8.6105 9.26934 25.388
rtibia 28.4777
rfoot -13.8956 -9.57117
rtoes -7.72297
lfemur -34.4627 5.87434 -20.1808
ltibia 69.1919
lfoot -4.66013 -5.78919
ltoes 1.91989
117
root -9.14889 17.2637 -5.40763 -3.57742 25.6652 -8.18584
lowerback 8.173 -0.81752 3.31456
upperback 0.786454 -0.582419 4.38192
thorax -3.76059 -0.296916 2.75412
lowerneck -13.3527 -3.16933 -9.79022
upperneck 22.7476 -3.00629 3.96844
head 9.62113 -1.77321 2.65917
rclavicle 1.27719e-014 4.29375e-014
rhumerus -38.0068 -18.0517 -72.6653
rradius 25.2975
rwrist 10.1473
rhand -13.1954 10.5832
rfingers 7.12502
rthumb 12.9049 -18.9977
lclavicle 1.27719e-014 4.29375e-014
lhumerus -38.2065 14.2157 83.4423
lradius 31.0022
lwrist -7.48263
lhand -22.1533 15.4427
lfingers 7.12502
lthumb 4.26074 45.3799
rfemur -7.75891 9.13278 25.9314
rtibia 28.2843
rfoot -14.5397 -10.3592
rtoes -7.53621
lfemur -35.7635 6.29364 -20.5102
ltibia 67.7816
lfoot -5.99943 -5.88641
ltoes 0.00994311
118
root -9.08009 17.2587 -5.19028 -3.57708 26.3268 -8.39478
lowerback 8.21842 -1.037 3.58094
upperback 1.11234 -0.8569 4.51806
thorax -3.44247 -0.432319 2.77259
lowerneck -15.4703 -3.30084 -10.4835
upperneck 23.3847 -2.87832 4.31561
head 10.2611 -1.72945 2.90951
rclavicle -4.17448e-015 -5.40694e-014
rhumerus -36.6531 -16.8381 -73.4938
rradius 25.9379
rwrist 9.35789
rhand -12.971 10.1854
rfingers 7.12502
rthumb 13.1212 -19.3818
lclavicle -4.17448e-015 -5.40694e-014
lhumerus -37.9002 15.8178 83.0904
lradius 30.4104
lwrist -7.56046
lhand -22.2652 15.7365
lfingers 7.12502
lthumb 4.15265 45.6758
rfemur -6.79619 8.63696 26.3653
rtibia 27.9663
rfoot -15.0903 -10.6239
rtoes -6.46364
lfemur -36.81 6.77796 -20.9497
ltibia 66.1133
lfoot -7.1888 -5.95112
ltoes -1.57501
119
root -9.00973 17.2477 -4.96328 -3.67411 27.0232 -8.5686
lowerback 8.12231 -0.968255 3.81876
upperback 0.817011 -0.746101 4.25264
thorax -3.70496 -0.385687 2.35265
lowerneck -14.885 -3.47293 -10.29
upperneck 23.612 -3.33386 4.68893
head 10.2688 -1.8869 2.95712
rclavicle -1.64494e-014 2.34566e-014
rhumerus -37.4224 -16.8276 -73.7983
rradius 27.0166
rwrist 8.87674
rhand -12.5619 9.72978
rfingers 7.12502
rthumb 13.5154 -19.8116
lclavicle -1.64494e-014 2.34566e-014
lhumerus -38.9505 15.5604 82.2415
lradius 30.0989
lwrist -6.80113
lhand -22.1041 14.425
lfingers 7.12502
lthumb 4.30824 44.3612
rfemur -5.59031 8.20258 26.8095
rtibia 27.5046
rfoot -15.5614 -11.1519
rtoes -6.74417
lfemur -37.5455 7.14901 -21.3947
ltibia 64.2533
lfoot -7.88646 -5.67969
ltoes -1.73756
120
root -8.94255 17.2227 -4.7516 -3.79259 27.5857 -9.10242
lowerback 8.0989 -1.00161 4.30632
upperback 0.290816 -0.721571 4.16195
thorax -4.24876 -0.390097 1.99202
lowerneck -13.4975 -3.35842 -10.1023
upperneck 23.4242 -3.41532 4.89478
head 9.93929 -1.89469 2.9963
rclavicle 3.66261e-014 -3.97569e-015
rhumerus -38.2844 -15.9135 -74.2885
rradius 28.2748
rwrist 7.47268
rhand -12.5205 9.37408
rfingers 7.12502
rthumb 13.5554 -20.1647
lclavicle 3.66261e-014 -3.97569e-015
lhumerus -40.2969 16.1571 80.9348
lradius 29.4246
lwrist -6.73912
lhand -21.7225 12.2227
lfingers 7.12502
lthumb 4.67673 42.1511
rfemur -4.62051 7.78562 27.5129
rtibia 26.9748
rfoot -16.2504 -11.2576
rtoes -6.83543
lfemur -38.4637 7.36525 -21.3921
ltibia 62.3763
lfoot -8.25368 -5.49979
ltoes 0.683307
121
root -8.88298 17.1962 -4.55328 -4.06252 27.8367 -10.0106
lowerback 8.34972 -1.03484 5.02902
upperback 0.331242 -0.661213 4.4616
thorax -4.3543 -0.369951 1.89927
lowerneck -14.1442 -3.2705 -10.1218
upperneck 23.1842 -3.17162 4.72066
head 9.95462 -1.7933 2.96088
rclavicle 4.29872e-015 -1.27222e-014
rhumerus -37.3873 -14.943 -74.7295
rradius 28.5477
rwrist 6.83567
rhand -13.7984 11.2002
rfingers 7.12502
rthumb 12.3235 -18.4167
lclavicle 4.29872e-015 -1.27222e-014
lhumerus -40.4521 18.0135 79.9681
lradius 28.5202
lwrist -7.81056
lhand -20.9021 12.4425
lfingers 7.12502
lthumb 5.46885 42.3519
rfemur -3.73839 7.53825 28.5807
rtibia 26.359
rfoot -16.7067 -11.1505
rtoes -6.27297
lfemur -39.5701 7.79115 -21.0111
ltibia 60.4355
lfoot -8.70737 -5.11236
ltoes 0.432873
122
root -8.8084 17.1758 -4.35148 -4.04965 27.874 -10.5285
lowerback 8.48917 -0.872736 5.53698
upperback 0.324343 -0.373489 4.61067
thorax -4.44234 -0.23611 1.73977
lowerneck -14.3766 -3.09855 -9.47171
upperneck 22.5491 -2.91575 4.13238
head 9.73066 -1.67275 2.6661
rclavicle 5.81445e-015 7.15625e-015
rhumerus -36.6564 -14.0523 -75.1017
rradius 29.0044
rwrist 5.995
rhand -14.4288 11.5845
rfingers 7.12502
rthumb 11.7156 -18.0679
lclavicle 5.81445e-015 7.15625e-015
lhumerus -40.743 18.4103 79.8011
lradius 28.304
lwrist -6.98331
lhand -21.1597 14.7713
lfingers 7.12502
lthumb 5.22019 44.687
rfemur -2.87115 7.17265 29.17
rtibia 25.5973
rfoot -16.875 -10.9634
rtoes -6.57774
lfemur -40.6494 8.31279 -21.1053
ltibia 58.2199
lfoot -9.27037 -4.17084
ltoes -0.835164
123
root -8.72414 17.1613 -4.14898 -3.90766 27.9546 -10.734
lowerback 8.37555 -0.587699 5.88122
upperback 0.235677 0.0283824 4.48216
thorax -4.46715 -0.0473926 1.36354
lowerneck -13.5893 -2.91997 -8.63004
upperneck 21.6967 -2.90286 3.99008
head 9.26179 -1.60673 2.47293
rclavicle 9.49197e-015 -1.31198e-014
rhumerus -36.5135 -13.7348 -75.3862
rradius 29.8786
rwrist 5.10012
rhand -14.5169 11.4584
rfingers 7.12502
rthumb 11.6306 -18.1989
lclavicle 9.49197e-015 -1.31198e-014
lhumerus -41.034 17.7242 79.876
lradius 28.2712
lwrist -4.92843
lhand -22.1799 16.4251
lfingers 7.12502
lthumb 4.23507 46.3627
rfemur -1.83205 6.71857 29.398
rtibia 24.6264
rfoot -17.119 -10.6507
rtoes -6.99499
lfemur -41.3044 8.47093 -21.2814
ltibia 55.7146
lfoot -9.66729 -3.28897
ltoes 1.30628
124
root -8.64662 17.1455 -3.92717 -4.06578 28.3694 -10.9021
lowerback 8.33383 -0.426553 5.97499
upperback 0.271546 0.238222 4.34245
thorax -4.40072 0.0542985 1.13854
lowerneck -13.2939 -2.93985 -8.16385
upperneck 21.2828 -3.09388 4.1341
head 9.06767 -1.64071 2.41973
rclavicle -1.52816e-014 3.26007e-014
rhumerus -36.488 -13.3662 -75.7805
rradius 31.0093
rwrist 3.72787
rhand -14.4966 11.4657
rfingers 7.12502
rthumb 11.6503 -18.1904
lclavicle -1.52816e-014 3.26007e-014
lhumerus -41.2998 17.3124 79.6555
lradius 28.2457
lwrist -3.44161
lhand -22.6579 16.978
lfingers 7.12502
lthumb 3.77351 46.9244
rfemur -0.242649 6.1315 29.7379
rtibia 23.4537
rfoot -17.3419 -10.6948
rtoes -7.73722
lfemur -41.4065 8.47886 -21.3699
ltibia 52.9691
lfoot -9.66535 -3.00254
ltoes 2.50092
125
root -8.56751 17.1306 -3.70238 -4.31347 28.6614 -10.8968
lowerback 8.47251 -0.423381 5.69571
upperback 0.463731 0.221655 4.45178
thorax -4.2788 0.0577577 1.40923
lowerneck -13.801 -3.0083 -8.47218
upperneck 21.2473 -3.09012 4.20298
head 9.15696 -1.65161 2.4911
rclavicle -1.29459e-014 1.31198e-014
rhumerus -35.937 -12.0684 -76.1895
rradius 31.935
rwrist 2.27718
rhand -14.6351 11.0696
rfingers 7.12502
rthumb 11.5167 -18.594
lclavicle -1.29459e-014 1.31198e-014
lhumerus -41.5391 18.499 79.1618
lradius 27.9692
lwrist -3.02785
lhand -22.9931 17.9305
lfingers 7.12502
lthumb 3.44973 47.8824
rfemur 1.60697 5.75626 29.9366
rtibia 22.1531
rfoot -17.5551 -10.764
rtoes -8.07796
lfemur -41.1549 8.50408 -21.5285
ltibia 49.9838
lfoot -9.46171 -2.84131
ltoes 1.05877
